# AST/ASF file generated using VICON BodyLanguage
# -----------------------------------------------
:version 1.10
:name VICON
:units
  mass 1.0
  length 0.45
  angle deg
:documentation
   .ast/.asf automatically generated from VICON data using
   VICON BodyBuilder and BodyLanguage model FoxedUp or BRILLIANT.MOD
:root
   order TX TY TZ RX RY RZ
   axis XYZ
   position 0 0 0  
   orientation 0 0 0 
:bonedata
  begin
     id 1 
     name lhipjoint
     direction 0.682418 -0.694059 0.22932 
     length 2.25561 
     axis 0 0 0  XYZ
  end
  begin
     id 2 
     name lfemur
     direction 0.34202 -0.939693 0  
     length 6.96448  
     axis 0 0 20  XYZ
    dof rx ry rz
    limits (-160.0 20.0)
           (-70.0 70.0)
           (-60.0 70.0)
  end
  begin
     id 3 
     name ltibia
     direction 0.34202 -0.939693 0   
     length 6.88553   
     axis 0 0 20   XYZ
    dof rx
    limits (-10.0 170.0)
  end
  begin
     id 4 
     name lfoot
     direction 0.0723587 -0.198804 0.977364   
     length 1.88518   
     axis -90 7.62852e-016 20   XYZ
    dof rx rz
    limits (-45.0 90.0)
           (-70.0 20.0)
  end
  begin
     id 5 
     name ltoes
     direction 1.53558e-011 -4.21962e-011 1   
     length 0.952124   
     axis -90 7.62852e-016 20   XYZ
    dof rx
    limits (-90.0 20.0)
  end
  begin
     id 6 
     name rhipjoint
     direction -0.657603 -0.71533 0.236348   
     length 2.18854  
     axis 0 0 0  XYZ 
  end
  begin
     id 7 
     name rfemur
     direction -0.34202 -0.939693 0   
     length 6.86686   
     axis 0 0 -20   XYZ
    dof rx ry rz
    limits (-160.0 20.0)
           (-70.0 70.0)
           (-70.0 60.0)
  end
  begin
     id 8 
     name rtibia
     direction -0.34202 -0.939693 0   
     length 6.59503   
     axis 0 0 -20   XYZ
    dof rx
    limits (-10.0 170.0)
 end
 begin
     id 9 
     name rfoot
     direction -0.101977 -0.280179 0.954516   
     length 1.93723  
     axis -90 -7.62852e-016 -20   XYZ
    dof rx rz
    limits (-45.0 90.0)
           (-20.0 70.0)
  end
  begin
     id 10 
     name rtoes
     direction -1.53564e-011 -4.21897e-011 1   
     length 0.970315   
     axis -90 -7.62852e-016 -20   XYZ
    dof rx
    limits (-90.0 20.0)
  end
  begin
     id 11 
     name lowerback
     direction -0.0339559 0.999421 -0.00235966   
     length 1.88543   
     axis 0 0 0   XYZ
    dof rx ry rz
    limits (-20.0 45.0)
           (-30.0 30.0)
           (-30.0 30.0)
  end
  begin
     id 12 
     name upperback
     direction 0.00401003 0.999739 0.0224689   
     length 1.8856   
     axis 0 0 0   XYZ
    dof rx ry rz
    limits (-20.0 45.0)
           (-30.0 30.0)
           (-30.0 30.0)
  end
  begin
     id 13 
     name thorax
     direction 0.0198619 0.999546 0.0226536   
     length 1.88352   
     axis 0 0 0   XYZ
    dof rx ry rz
    limits (-20.0 45.0)
           (-30.0 30.0)
           (-30.0 30.0)
  end
  begin
     id 14 
     name lowerneck
     direction -0.0461848 0.998632 0.0245198   
     length 1.34895   
     axis 0 0 0   XYZ
    dof rx ry rz
    limits (-20.0 45.0)
           (-30.0 30.0)
           (-30.0 30.0)
  end
  begin
     id 15 
     name upperneck
     direction -0.0180627 0.994724 -0.100984   
     length 1.35214   
     axis 0 0 0   XYZ
    dof rx ry rz
    limits (-20.0 45.0)
           (-30.0 30.0)
           (-30.0 30.0)
  end
  begin
     id 16
     name head
     direction -0.00374772 0.999293 -0.037403  
     length 1.3568  
     axis 0 0 0   XYZ
    dof rx ry rz
    limits (-20.0 45.0)
           (-30.0 30.0)
           (-30.0 30.0)
  end
  begin
     id 17 
     name lclavicle
     direction 0.971773 0.191119 0.138311  
     length 2.84954  
     axis 0 0 0   XYZ
    dof ry rz
    limits (-20.0 10.0)
           (0.0 20.0)
  end
  begin
     id 18 
     name lhumerus
     direction 1 -4.4897e-011 -2.43761e-027   
     length 4.40919   
     axis 180 -30 -90   XYZ
    dof rx ry rz
    limits (-60.0 90.0)
           (-90.0 90.0)
           (-90.0 90.0)
  end
  begin
     id 19
     name lradius
     direction 1 -4.4896e-011 -9.1621e-027   
     length 3.03857   
     axis 180 -30 -90   XYZ
    dof rx
    limits (-10.0 170.0)
  end
  begin
     id 20
     name lwrist
     direction 1 -4.4896e-011 -1.41363e-026   
     length 1.51928   
     axis 1.07133e-014 90 90   XYZ
    dof ry
    limits (-180.0 0.0)
 end
  begin
     id 21 
     name lhand
     direction 1 -4.48978e-011 -2.82725e-026   
     length 0.523208   
     axis 1.80403e-014 90 90   XYZ
    dof rx rz
    limits (-90.0 90.0)
           (-45.0 45.0)
  end
  begin
     id 22 
     name lfingers
     direction 1 -4.48977e-011 -5.6545e-026   
     length 0.421824   
     axis 3.60806e-014 90 90   XYZ
    dof rx
    limits (0.0 90.0)
  end
  begin
     id 23
     name lthumb
     direction 0.707107 -6.34962e-011 0.707107   
     length 0.605657   
     axis -90 45 2.85299e-015   XYZ
    dof rx rz
    limits (-45.0 45.0)
           (-45.0 45.0)
  end
  begin
     id 24 
     name rclavicle
     direction -0.957247 0.24311 0.156766   
     length 3.12406  
     axis 0 0 0   XYZ 
    dof ry rz
    limits (-10.0 20.0)
           (-20.0 0.0)
  end
  begin
     id 25 
     name rhumerus
     direction -1 -4.48964e-011 -1.70632e-027  
     length 4.61969   
     axis 180 30 90   XYZ
    dof rx ry rz
    limits (-90.0 60.0)
           (-90.0 90.0)
           (-90.0 90.0)
  end
  begin
     id 26 
     name rradius
     direction -1 -4.48966e-011 -6.60395e-027   
     length 3.09382   
     axis 180 30 90   XYZ
    dof rx
    limits (-10.0 170.0)
  end
  begin
     id 27 
     name rwrist
     direction -1 -4.48963e-011 -1.41363e-026   
     length 1.54691   
     axis 1.07133e-014 -90 -90   XYZ
    dof ry
    limits (-180.0 0.0)
  end
  begin
     id 28
     name rhand
     direction -1 -4.49013e-011 -2.82725e-026   
     length 0.500896   
     axis 1.80403e-014 -90 -90   XYZ
    dof rx rz
    limits (-90.0 90.0)
           (-45.0 45.0)
  end
  begin
     id 29
     name rfingers
     direction -1 -4.48902e-011 -5.6545e-026   
     length 0.403835   
     axis 3.60806e-014 -90 -90   XYZ
    dof rx
    limits (0.0 90.0)
  end
  begin
     id 30
     name rthumb
     direction -0.707107 -6.34953e-011 0.707107   
     length 0.579829   
     axis -90 -45 -2.85299e-015   XYZ
    dof rx rz
    limits (-45.0 45.0)
           (-45.0 45.0)
  end
:hierarchy
  begin
    root lhipjoint rhipjoint lowerback
    lhipjoint lfemur
    lfemur ltibia
    ltibia lfoot
    lfoot ltoes
    rhipjoint rfemur
    rfemur rtibia
    rtibia rfoot
    rfoot rtoes
    lowerback upperback
    upperback thorax
    thorax lowerneck lclavicle rclavicle
    lowerneck upperneck
    upperneck head
    lclavicle lhumerus
    lhumerus lradius
    lradius lwrist
    lwrist lhand lthumb
    lhand lfingers
    rclavicle rhumerus
    rhumerus rradius
    rradius rwrist
    rwrist rhand rthumb
    rhand rfingers
  end

#!OML:ASF E:\madness\Project 1\Capture day 1\Session 1\Female1.ASF
:FULLY-SPECIFIED
:DEGREES
1280
root 7.00168 16.3783 0.803772 197.619 -72.4579 -189.789
lowerback -8.73142 0.163588 -4.12814
upperback -5.47258 0.266765 0.534668
thorax -0.815375 0.140696 2.89389
lowerneck 0.123371 4.42686 1.4753
upperneck 8.19083 6.05428 -4.02506
head 2.77588 2.88175 -1.40078
rclavicle 1.49089e-016 4.77083e-015
rhumerus -47.9937 -3.69139 -84.7543
rradius 34.0548
rwrist 3.1288
rhand -12.738 -51.6364
rfingers 7.12502
rthumb 13.3458 -81.189
lclavicle 1.49089e-016 4.77083e-015
lhumerus -49.9255 7.73166 85.008
lradius 36.0274
lwrist -5.3051
lhand -24.5107 0.963902
lfingers 7.12502
lthumb 1.98415 30.9344
rfemur -3.11599 18.3347 7.96464
rtibia -1.11319e-014
rfoot -7.11126 -16.1143
rtoes 12.3632
lfemur -6.64765 -16.8074 -25.2781
ltibia 13.8116
lfoot -10.7453 35.3542
ltoes 28.0646
1281
root 7.00482 16.3785 0.807395 197.312 -72.3119 -189.361
lowerback -8.79099 0.207682 -4.01049
upperback -5.50669 0.315694 0.539269
thorax -0.820528 0.161641 2.8365
lowerneck 0.193742 4.4356 1.39044
upperneck 8.12637 6.05732 -3.89198
head 2.73237 2.88677 -1.34451
rclavicle 2.92213e-014 3.97569e-016
rhumerus -48.0214 -3.87028 -84.6597
rradius 33.9747
rwrist 3.30758
rhand -12.921 -51.3556
rfingers 7.12502
rthumb 13.1693 -80.9197
lclavicle 2.92213e-014 3.97569e-016
lhumerus -49.8909 7.60483 85.0863
lradius 36.0119
lwrist -5.20895
lhand -24.8469 0.46607
lfingers 7.12502
lthumb 1.6594 30.4394
rfemur -3.31997 18.4849 7.99056
rtibia -3.18055e-015
rfoot -7.00165 -16.1532
rtoes 11.8215
lfemur -6.78903 -16.8259 -25.1593
ltibia 13.8265
lfoot -10.6452 35.5373
ltoes 27.828
1282
root 7.00644 16.3769 0.813022 197.236 -72.2032 -189.223
lowerback -8.75219 0.168835 -3.96639
upperback -5.59146 0.25245 0.54216
thorax -0.924772 0.130145 2.80945
lowerneck 0.38079 4.49216 1.36195
upperneck 8.04161 6.12397 -3.79934
head 2.66678 2.92475 -1.31216
rclavicle -8.74653e-015 -7.95139e-016
rhumerus -48.0719 -3.79824 -84.7145
rradius 33.8838
rwrist 3.39823
rhand -13.1124 -51.4822
rfingers 7.12502
rthumb 12.9849 -81.0582
lclavicle -8.74653e-015 -7.95139e-016
lhumerus -49.9935 7.65878 85.0131
lradius 36.025
lwrist -5.05748
lhand -24.9355 0.248413
lfingers 7.12502
lthumb 1.57384 30.2224
rfemur -3.45303 18.5828 7.94875
rtibia -1.74931e-014
rfoot -6.89917 -16.1974
rtoes 11.3144
lfemur -6.85583 -16.8141 -25.1472
ltibia 13.8225
lfoot -10.6979 35.6151
ltoes 28.1414
1283
root 7.0036 16.3756 0.817811 197.464 -72.1089 -189.507
lowerback -8.68017 0.121791 -4.05424
upperback -5.61777 0.191284 0.504757
thorax -0.987898 0.102366 2.81511
lowerneck 0.420529 4.55111 1.40181
upperneck 8.05363 6.19854 -3.74454
head 2.66511 2.96473 -1.30012
rclavicle -3.53837e-014 6.36111e-015
rhumerus -48.0914 -3.6725 -84.8243
rradius 33.8608
rwrist 3.29332
rhand -13.4655 -51.6387
rfingers 7.12502
rthumb 12.6444 -81.236
lclavicle -3.53837e-014 6.36111e-015
lhumerus -50.0912 7.7178 84.9292
lradius 36.0962
lwrist -5.05076
lhand -24.7228 0.571846
lfingers 7.12502
lthumb 1.77932 30.5442
rfemur -3.41867 18.6509 7.81366
rtibia 0
rfoot -6.87377 -16.185
rtoes 10.9956
lfemur -6.77762 -16.8522 -25.3088
ltibia 13.8226
lfoot -10.9234 35.7012
ltoes 28.7879
1284
root 7.00155 16.3746 0.819859 197.687 -72.0516 -189.774
lowerback -8.62936 0.0842558 -4.17135
upperback -5.62216 0.147126 0.470932
thorax -1.01819 0.0834453 2.84243
lowerneck 0.274229 4.57038 1.45674
upperneck 8.21232 6.22417 -3.70115
head 2.74627 2.97637 -1.29077
rclavicle 1.00883e-014 9.54166e-015
rhumerus -48.1404 -3.69484 -84.8487
rradius 33.9049
rwrist 3.19225
rhand -13.7581 -51.4087
rfingers 7.12502
rthumb 12.3624 -81.0232
lclavicle 1.00883e-014 9.54166e-015
lhumerus -50.1556 7.70801 84.8964
lradius 36.1718
lwrist -5.16347
lhand -24.6271 0.61494
lfingers 7.12502
lthumb 1.87175 30.5865
rfemur -3.36558 18.6859 7.70837
rtibia 1.59028e-015
rfoot -6.93338 -16.1667
rtoes 10.9724
lfemur -6.71322 -16.8423 -25.4288
ltibia 13.7904
lfoot -10.9452 35.6863
ltoes 28.8077
1285
root 7.00035 16.3744 0.820714 197.69 -71.9408 -189.754
lowerback -8.59219 0.0712618 -4.23993
upperback -5.70001 0.126244 0.482273
thorax -1.11928 0.0763604 2.89113
lowerneck 0.277487 4.58836 1.50017
upperneck 8.37386 6.24989 -3.72556
head 2.80383 2.98588 -1.30468
rclavicle 3.94588e-014 -1.51076e-014
rhumerus -48.3321 -3.6578 -84.8267
rradius 34.0223
rwrist 3.11757
rhand -14.0022 -50.8247
rfingers 7.12502
rthumb 12.127 -80.4533
lclavicle 3.94588e-014 -1.51076e-014
lhumerus -50.32 7.68635 84.8903
lradius 36.2268
lwrist -5.27035
lhand -24.4908 0.562681
lfingers 7.12502
lthumb 2.00338 30.533
rfemur -3.4215 18.785 7.65871
rtibia 1.11319e-014
rfoot -7.00478 -16.2083
rtoes 11.2165
lfemur -6.72568 -16.6763 -25.4489
ltibia 13.7448
lfoot -10.7593 35.5889
ltoes 28.3584
1286
root 6.99903 16.3764 0.822417 197.463 -71.7601 -189.467
lowerback -8.60956 0.079558 -4.23108
upperback -5.79711 0.128355 0.52071
thorax -1.21165 0.078446 2.92628
lowerneck 0.614205 4.61249 1.61484
upperneck 8.28064 6.2845 -3.87986
head 2.72341 3.00523 -1.38152
rclavicle -1.30701e-014 -2.5842e-014
rhumerus -48.5576 -3.48357 -84.8741
rradius 34.1067
rwrist 2.92375
rhand -14.0512 -50.8778
rfingers 7.12502
rthumb 12.0798 -80.5091
lclavicle -1.30701e-014 -2.5842e-014
lhumerus -50.5384 7.70056 84.8682
lradius 36.3034
lwrist -5.26853
lhand -24.3963 0.273331
lfingers 7.12502
lthumb 2.09462 30.2428
rfemur -3.56126 18.9668 7.64689
rtibia 9.54166e-015
rfoot -7.00523 -16.2366
rtoes 11.4583
lfemur -6.76274 -16.5824 -25.4103
ltibia 13.742
lfoot -10.8227 35.652
ltoes 28.4293
1287
root 6.99892 16.3787 0.824909 197.109 -71.6408 -189.097
lowerback -8.64125 0.0638011 -4.16857
upperback -5.81344 0.10247 0.544749
thorax -1.20858 0.063557 2.91424
lowerneck 0.907985 4.57578 1.91149
upperneck 8.10891 6.24624 -4.19819
head 2.63699 2.99107 -1.54464
rclavicle 3.7123e-014 5.56597e-015
rhumerus -48.5867 -3.41442 -84.9528
rradius 34.0268
rwrist 2.81646
rhand -13.4063 -51.8759
rfingers 7.12502
rthumb 12.7015 -81.4697
lclavicle 3.7123e-014 5.56597e-015
lhumerus -50.5825 7.66204 84.8475
lradius 36.2918
lwrist -5.10168
lhand -24.6384 -0.184262
lfingers 7.12502
lthumb 1.86076 29.7874
rfemur -3.63785 19.1098 7.70326
rtibia 7.95139e-015
rfoot -6.93568 -16.2188
rtoes 11.4736
lfemur -6.76067 -16.5837 -25.3379
ltibia 13.7793
lfoot -11.1644 35.7913
ltoes 28.7706
1288
root 6.99898 16.3795 0.828267 196.948 -71.5833 -188.94
lowerback -8.67987 0.0216015 -4.14959
upperback -5.74235 0.0521915 0.541535
thorax -1.10867 0.0361143 2.89651
lowerneck 0.78426 4.53182 2.04393
upperneck 8.13601 6.19387 -4.3057
head 2.6767 2.96461 -1.6014
rclavicle -5.96354e-016 7.95139e-016
rhumerus -48.3469 -3.59789 -84.8818
rradius 33.8037
rwrist 3.11782
rhand -12.5727 -52.7117
rfingers 7.12502
rthumb 13.505 -82.2538
lclavicle -5.96354e-016 7.95139e-016
lhumerus -50.4077 7.65482 84.8337
lradius 36.2059
lwrist -5.03241
lhand -24.9761 -0.347896
lfingers 7.12502
lthumb 1.53461 29.6263
rfemur -3.66939 19.178 7.72141
rtibia -1.59028e-014
rfoot -6.87979 -16.2172
rtoes 11.4789
lfemur -6.77346 -16.5778 -25.3159
ltibia 13.8202
lfoot -11.3587 35.8819
ltoes 28.8308
1289
root 7.00001 16.3787 0.832128 196.987 -71.5254 -188.951
lowerback -8.81537 0.0354877 -4.11558
upperback -5.72886 0.073273 0.498234
thorax -1.02139 0.0423561 2.83434
lowerneck 1.06665 4.47539 1.98541
upperneck 7.99507 6.10968 -4.23342
head 2.56961 2.92769 -1.57617
rclavicle -4.62174e-015 -3.97569e-016
rhumerus -48.3109 -4.00415 -84.6523
rradius 33.6569
rwrist 3.46697
rhand -13.0774 -52.2193
rfingers 7.12502
rthumb 13.0186 -81.793
lclavicle -4.62174e-015 -3.97569e-016
lhumerus -50.4598 7.63217 84.8058
lradius 36.2686
lwrist -5.15801
lhand -24.9125 -0.345433
lfingers 7.12502
lthumb 1.5961 29.6283
rfemur -3.72747 19.2227 7.67198
rtibia 7.95139e-015
rfoot -6.91556 -16.2161
rtoes 11.5165
lfemur -6.84245 -16.653 -25.3262
ltibia 13.8588
lfoot -11.3394 35.9517
ltoes 29.0676
1290
root 7.00292 16.3774 0.835629 196.94 -71.475 -188.907
lowerback -8.93351 0.0317673 -4.06566
upperback -5.52002 0.0861681 0.450113
thorax -0.738558 0.0424695 2.75753
lowerneck 0.642784 4.47074 2.05003
upperneck 7.94596 6.11044 -4.29034
head 2.63497 2.92742 -1.59733
rclavicle 2.01766e-014 -5.56597e-015
rhumerus -47.9521 -4.21476 -84.6414
rradius 33.6309
rwrist 3.48321
rhand -13.7172 -51.7041
rfingers 7.12502
rthumb 12.4018 -81.3163
lclavicle 2.01766e-014 -5.56597e-015
lhumerus -50.0497 7.65497 84.7664
lradius 36.2046
lwrist -5.2733
lhand -24.4043 -0.0969575
lfingers 7.12502
lthumb 2.08691 29.8726
rfemur -3.7485 19.2737 7.66081
rtibia 1.43125e-014
rfoot -6.93897 -16.2127
rtoes 11.4446
lfemur -6.8745 -16.6397 -25.3126
ltibia 13.8826
lfoot -11.3459 35.9174
ltoes 29.2354
1291
root 7.00628 16.3776 0.840228 196.818 -71.436 -188.807
lowerback -8.92606 0.0690129 -3.99163
upperback -5.459 0.13527 0.420333
thorax -0.681665 0.064387 2.68893
lowerneck 0.649467 4.46843 1.8887
upperneck 7.81044 6.09804 -4.1256
head 2.57436 2.92437 -1.51652
rclavicle -6.75122e-014 0
rhumerus -47.8902 -4.31805 -84.578
rradius 33.6049
rwrist 3.38202
rhand -12.8515 -52.2134
rfingers 7.12502
rthumb 13.2364 -81.7732
lclavicle -6.75122e-014 0
lhumerus -49.8292 7.47803 84.8556
lradius 36.0348
lwrist -5.26069
lhand -24.1966 0.15474
lfingers 7.12502
lthumb 2.28752 30.1222
rfemur -3.76063 19.3224 7.67305
rtibia 1.27222e-014
rfoot -6.87153 -16.2179
rtoes 11.3871
lfemur -6.86894 -16.4932 -25.3015
ltibia 13.878
lfoot -11.3204 35.8444
ltoes 29.0107
